# xmcd CD database file
#
# Track frame offsets:
#	150
#	13804
#	35528
#	50784
#	84197
#	98113
#	124775
#	146826
#	164286
#	183948
#	199240
#	209735
#	226518
#	242025
#
# Disc length: 3452 seconds
#
# Revision: 1
# Processed by: cddbd v1.5.2PL0 Copyright (c) Steve Scherf et al.
# Submitted via: CDex 1.70beta2
#
DISCID=c00d7a0e
DTITLE=Latvian Blues Band - Music of my Heart
DYEAR=2016
DGENRE=Blues
TTITLE0=Do you mitt me
TTITLE1=Quit you
TTITLE2=Turn off the light
TTITLE3=She's the one
TTITLE4=Creep world
TTITLE5=Music of my heart
TTITLE6=Bad habits
TTITLE7=Inpossible man
TTITLE8=Take me
TTITLE9=World is turning
TTITLE10=Mom's song
TTITLE11=How I want to be
TTITLE12=Prayer
TTITLE13=Learning to live
EXTD=YEAR: 2016
EXTT0=
EXTT1=
EXTT2=
EXTT3=
EXTT4=
EXTT5=
EXTT6=
EXTT7=
EXTT8=
EXTT9=
EXTT10=
EXTT11=
EXTT12=
EXTT13=
PLAYORDER=
